; NON-PLATED HOLES START AT T1
; THROUGH (PLATED) HOLES START AT T100
M48
INCH
T1C0.125984
T100C0.038000
T101C0.035433
T102C0.039370
T103C0.040000
T104C0.118000
T105C0.038417
T106C0.035000
T107C0.038445
T108C0.031497
T109C0.059055
T110C0.059056
%
T1
X002148Y006262
X002148Y008762
X002148Y013262
X002148Y001762
T100
X026648Y001262
X021648Y015262
X022648Y015262
X026648Y002262
X023648Y014262
X021648Y016262
X022648Y016262
X023648Y015262
X023648Y016262
X021648Y014262
X022648Y014262
T101
X013250Y015276
X009050Y009176
X019150Y012576
X024650Y007976
X010250Y009176
X018950Y010376
X022650Y009576
X012150Y019176
X013250Y018476
X018450Y002476
X016450Y005876
X023750Y002276
X016550Y013376
X010250Y016676
X021550Y012976
X009050Y012776
X019550Y011476
T102
X004648Y012762
X004648Y005762
X004648Y002762
X005648Y011262
X005648Y004262
X005648Y009262
X004648Y011762
X004648Y004762
X005648Y010262
X005648Y003262
X004648Y009762
X004648Y010762
X004648Y003762
X005648Y012262
X005648Y005262
X005648Y002262
T103
X012648Y014262
X014648Y014262
X016648Y014262
X018648Y014262
X012648Y011702
X019648Y014262
X015648Y014262
X017648Y014262
X010868Y014262
X010868Y011702
X009648Y010262
X007868Y010262
X012648Y010262
X010868Y010262
X009648Y007702
X007868Y007702
X018648Y018262
X016648Y018262
X014648Y018262
X019648Y018262
X017648Y018262
X015648Y018262
X012648Y007702
X009648Y014262
X010868Y007702
X009648Y011702
X007868Y014262
X007868Y011702
T104
X002648Y019624
X004498Y018443
X002648Y017262
T105
X025248Y001262
X016248Y001262
X017248Y001262
X020248Y001262
X018248Y001262
X011248Y001262
X012248Y001262
X013248Y001262
X021248Y001262
X022248Y001262
X023248Y001262
X014248Y001262
X015248Y001262
X024248Y001262
T106
X013648Y004262
X013648Y005262
X013648Y006262
X009648Y003262
X009648Y004262
X015648Y007262
X015648Y011262
X009648Y005262
X013648Y003262
X016648Y007262
X009648Y006262
X016648Y011262
T107
X011648Y020262
X012648Y020262
X020248Y020262
X018248Y020262
X019248Y020262
X013648Y020262
X014648Y020262
X021248Y020262
X015648Y020262
X022248Y020262
X023248Y020262
X007648Y020262
X016648Y020262
X024248Y020262
X010648Y020262
X025248Y020262
X008648Y020262
X009648Y020262
T108
X025648Y004246
X025648Y003262
X025648Y007246
X025648Y006262
T109
X024815Y010762
X024815Y012762
T110
X025815Y011762
X026815Y012762
X026815Y010762
T00
M30
