; NON-PLATED HOLES START AT T1
; THROUGH (PLATED) HOLES START AT T100
M48
INCH
T100C0.038000
T101C0.038417
T102C0.040000
T103C0.035000
T104C0.038445
T105C0.059055
T106C0.059056
T107C0.035433
T108C0.031497
%
T100
X004648Y005262
X004648Y015262
X002648Y017262
X002648Y011262
X003648Y017262
X003648Y011262
X002648Y009262
X004648Y017262
X002648Y003262
X004648Y011262
X003648Y009262
X003648Y003262
X004648Y009262
X004648Y003262
X002648Y005262
X002648Y015262
X003648Y005262
X003648Y015262
T101
X025248Y001262
X016248Y001262
X017248Y001262
X018248Y001262
X011248Y001262
X020248Y001262
X021248Y001262
X012248Y001262
X013248Y001262
X022248Y001262
X023248Y001262
X014248Y001262
X015248Y001262
X024248Y001262
T102
X016648Y018262
X017648Y018262
X014648Y014262
X015648Y014262
X018648Y018262
X019648Y018262
X016648Y014262
X017648Y014262
X018648Y014262
X019648Y014262
X014648Y018262
X015648Y018262
T103
X015648Y011262
X016648Y007262
X015648Y007262
X016648Y011262
T104
X018248Y020262
X011648Y020262
X012648Y020262
X013648Y020262
X020248Y020262
X021248Y020262
X019248Y020262
X014648Y020262
X015648Y020262
X022248Y020262
X023248Y020262
X007648Y020262
X016648Y020262
X024248Y020262
X010648Y020262
X025248Y020262
X008648Y020262
X009648Y020262
T105
X024815Y012762
X024815Y010762
T106
X025815Y011762
X026815Y012762
X026815Y010762
T107
X016550Y006176
X005550Y012176
X020250Y005776
X014350Y017276
X018950Y005776
T108
X025648Y004246
X025648Y003262
X025648Y007246
X025648Y006262
T00
M30
