G04 MADE WITH FRITZING*
G04 WWW.FRITZING.ORG*
G04 DOUBLE SIDED*
G04 HOLES PLATED*
G04 CONTOUR ON CENTER OF CONTOUR VECTOR*
%ASAXBY*%
%FSLAX23Y23*%
%MOIN*%
%OFA0B0*%
%SFA1.0B1.0*%
%ADD10C,0.062992*%
%ADD11C,0.075000*%
%ADD12C,0.064000*%
%ADD13C,0.078000*%
%ADD14C,0.090551*%
%ADD15C,0.066194*%
%ADD16C,0.066222*%
%ADD17C,0.075433*%
%ADD18R,0.062992X0.062992*%
%ADD19R,0.062992X0.031496*%
%ADD20C,0.048000*%
%ADD21C,0.024000*%
%ADD22C,0.008000*%
%LNCOPPER1*%
G90*
G70*
G54D10*
X2565Y626D03*
X2565Y725D03*
X2565Y326D03*
X2565Y425D03*
G54D11*
X1665Y1126D03*
X1665Y726D03*
X1565Y1126D03*
X1565Y726D03*
G54D12*
X1865Y1426D03*
X1765Y1426D03*
X1665Y1426D03*
X1565Y1426D03*
X1465Y1426D03*
X1465Y1826D03*
X1565Y1826D03*
X1665Y1826D03*
X1765Y1826D03*
X1865Y1826D03*
X1965Y1826D03*
X1965Y1426D03*
G54D13*
X465Y526D03*
X365Y526D03*
X265Y526D03*
X465Y1126D03*
X365Y1126D03*
X265Y1126D03*
X465Y1726D03*
X365Y1726D03*
X265Y1726D03*
G54D14*
X2482Y1276D03*
X2582Y1176D03*
X2482Y1076D03*
X2682Y1076D03*
X2682Y1276D03*
G54D15*
X2125Y126D03*
X2225Y126D03*
X2325Y126D03*
X2425Y126D03*
X2525Y126D03*
G54D16*
X1665Y2026D03*
X1565Y2026D03*
X1465Y2026D03*
X1365Y2026D03*
X1265Y2026D03*
X1165Y2026D03*
X1065Y2026D03*
X965Y2026D03*
X865Y2026D03*
X765Y2026D03*
X2525Y2026D03*
X2425Y2026D03*
X2325Y2026D03*
X2225Y2026D03*
X2125Y2026D03*
X2025Y2026D03*
X1925Y2026D03*
X1825Y2026D03*
G54D15*
X1225Y126D03*
X1125Y126D03*
X1325Y126D03*
X1425Y126D03*
X1525Y126D03*
X1625Y126D03*
X1725Y126D03*
X1825Y126D03*
X2025Y126D03*
G54D13*
X465Y326D03*
X365Y326D03*
X265Y326D03*
X465Y926D03*
X365Y926D03*
X265Y926D03*
X465Y1526D03*
X365Y1526D03*
X265Y1526D03*
G54D17*
X1895Y578D03*
X1655Y618D03*
X555Y1218D03*
X1435Y1728D03*
X2025Y578D03*
G54D18*
X2565Y626D03*
X2565Y326D03*
G54D19*
X1794Y1226D03*
X1794Y1176D03*
X1794Y1126D03*
X1794Y1076D03*
X1794Y1026D03*
X1794Y976D03*
X1794Y926D03*
X1794Y877D03*
X1794Y827D03*
X1794Y777D03*
X1794Y727D03*
X1794Y677D03*
X1794Y627D03*
X1794Y577D03*
X1794Y527D03*
X1794Y477D03*
X1794Y427D03*
X2365Y1226D03*
X2365Y1176D03*
X2365Y1126D03*
X2365Y1076D03*
X2365Y1026D03*
X2365Y976D03*
X2365Y926D03*
X2365Y877D03*
X2365Y827D03*
X2365Y777D03*
X2365Y727D03*
X2365Y677D03*
X2365Y627D03*
X2365Y577D03*
X2365Y527D03*
X2365Y477D03*
X2365Y427D03*
G54D20*
X465Y1485D02*
X465Y1167D01*
D02*
X465Y1685D02*
X465Y1567D01*
D02*
X365Y1685D02*
X365Y1567D01*
D02*
X365Y1526D02*
X365Y1167D01*
D02*
X365Y1085D02*
X365Y967D01*
D02*
X365Y485D02*
X365Y367D01*
D02*
X465Y485D02*
X465Y367D01*
D02*
X465Y885D02*
X465Y567D01*
D02*
X465Y1085D02*
X465Y967D01*
G54D21*
D02*
X2682Y1236D02*
X2682Y1117D01*
G54D20*
D02*
X1626Y426D02*
X1625Y168D01*
D02*
X765Y426D02*
X1626Y426D01*
D02*
X765Y326D02*
X765Y426D01*
D02*
X506Y326D02*
X765Y326D01*
D02*
X1529Y326D02*
X1526Y168D01*
D02*
X965Y126D02*
X965Y326D01*
D02*
X965Y326D02*
X1529Y326D01*
D02*
X365Y126D02*
X965Y126D01*
D02*
X365Y285D02*
X365Y126D01*
D02*
X365Y926D02*
X365Y567D01*
G54D22*
D02*
X2391Y1176D02*
X2546Y1176D01*
D02*
X2315Y708D02*
X2035Y398D01*
D02*
X2339Y717D02*
X2315Y708D01*
G54D21*
D02*
X2457Y1126D02*
X2463Y1113D01*
D02*
X2391Y1126D02*
X2457Y1126D01*
D02*
X2389Y1236D02*
X2444Y1260D01*
D02*
X2641Y1276D02*
X2522Y1276D01*
D02*
X2522Y1076D02*
X2641Y1076D01*
G54D22*
D02*
X1745Y1088D02*
X1686Y1116D01*
D02*
X1745Y388D02*
X1745Y1088D01*
D02*
X1845Y398D02*
X1745Y388D01*
D02*
X2035Y398D02*
X1845Y398D01*
D02*
X2294Y1931D02*
X2305Y1998D01*
D02*
X1629Y1917D02*
X2294Y1931D01*
D02*
X1575Y1858D02*
X1629Y1917D01*
D02*
X1573Y1851D02*
X1575Y1858D01*
D02*
X2415Y388D02*
X1725Y368D01*
D02*
X2415Y758D02*
X2415Y388D01*
D02*
X2391Y767D02*
X2415Y758D01*
D02*
X2305Y1998D02*
X2311Y2006D01*
D02*
X1645Y1058D02*
X1582Y1111D01*
D02*
X1725Y1058D02*
X1645Y1058D01*
D02*
X1725Y368D02*
X1725Y1058D01*
D02*
X1587Y1413D02*
X1845Y1258D01*
D02*
X1845Y688D02*
X1820Y682D01*
D02*
X1845Y1258D02*
X1845Y688D01*
D02*
X1820Y577D02*
X1872Y577D01*
D02*
X1634Y627D02*
X1515Y678D01*
X1515Y678D02*
X1467Y1401D01*
G54D21*
D02*
X265Y1702D02*
X265Y1551D01*
D02*
X1360Y1988D02*
X572Y1234D01*
D02*
X1362Y2002D02*
X1360Y1988D01*
D02*
X265Y502D02*
X265Y351D01*
D02*
X1384Y1804D02*
X1419Y1752D01*
D02*
X1387Y1923D02*
X1384Y1804D01*
D02*
X1447Y2002D02*
X1387Y1923D01*
G54D22*
D02*
X2515Y678D02*
X2549Y710D01*
D02*
X2515Y468D02*
X2515Y678D01*
D02*
X2549Y439D02*
X2515Y468D01*
D02*
X2490Y1042D02*
X2560Y745D01*
D02*
X1785Y1398D02*
X2339Y1234D01*
D02*
X1780Y1405D02*
X1785Y1398D01*
D02*
X1295Y1978D02*
X1325Y2073D01*
D02*
X1125Y1978D02*
X1295Y1978D01*
D02*
X1084Y2011D02*
X1125Y1978D01*
D02*
X1595Y2073D02*
X1615Y2058D01*
D02*
X1325Y2073D02*
X1595Y2073D01*
D02*
X1615Y1968D02*
X1515Y1858D01*
D02*
X1615Y2058D02*
X1615Y1968D01*
D02*
X1695Y1778D02*
X1744Y1812D01*
D02*
X1525Y1778D02*
X1695Y1778D01*
D02*
X1515Y1858D02*
X1525Y1778D01*
D02*
X1975Y498D02*
X2013Y558D01*
D02*
X1862Y443D02*
X1975Y498D01*
D02*
X1820Y433D02*
X1862Y443D01*
D02*
X1949Y1257D02*
X1869Y1304D01*
D02*
X1869Y1304D02*
X1687Y1413D01*
D02*
X1956Y540D02*
X1956Y733D01*
D02*
X1820Y481D02*
X1865Y487D01*
D02*
X1865Y487D02*
X1956Y540D01*
D02*
X1956Y733D02*
X1949Y1257D01*
G04 End of Copper1*
M02*