G04 MADE WITH FRITZING*
G04 WWW.FRITZING.ORG*
G04 DOUBLE SIDED*
G04 HOLES PLATED*
G04 CONTOUR ON CENTER OF CONTOUR VECTOR*
%ASAXBY*%
%FSLAX23Y23*%
%MOIN*%
%OFA0B0*%
%SFA1.0B1.0*%
%ADD10C,0.062992*%
%ADD11C,0.075000*%
%ADD12C,0.064000*%
%ADD13C,0.078000*%
%ADD14C,0.090551*%
%ADD15C,0.066194*%
%ADD16C,0.066222*%
%ADD17C,0.075433*%
%ADD18R,0.062992X0.062992*%
%ADD19C,0.008000*%
%ADD20C,0.024000*%
%LNCOPPER0*%
G90*
G70*
G54D10*
X2565Y626D03*
X2565Y725D03*
X2565Y326D03*
X2565Y425D03*
G54D11*
X1665Y1126D03*
X1665Y726D03*
X1565Y1126D03*
X1565Y726D03*
G54D12*
X1865Y1426D03*
X1765Y1426D03*
X1665Y1426D03*
X1565Y1426D03*
X1465Y1426D03*
X1465Y1826D03*
X1565Y1826D03*
X1665Y1826D03*
X1765Y1826D03*
X1865Y1826D03*
X1965Y1826D03*
X1965Y1426D03*
G54D13*
X465Y526D03*
X365Y526D03*
X265Y526D03*
X465Y1126D03*
X365Y1126D03*
X265Y1126D03*
X465Y1726D03*
X365Y1726D03*
X265Y1726D03*
G54D14*
X2482Y1276D03*
X2582Y1176D03*
X2482Y1076D03*
X2682Y1076D03*
X2682Y1276D03*
G54D15*
X2125Y126D03*
X2225Y126D03*
X2325Y126D03*
X2425Y126D03*
X2525Y126D03*
G54D16*
X1665Y2026D03*
X1565Y2026D03*
X1465Y2026D03*
X1365Y2026D03*
X1265Y2026D03*
X1165Y2026D03*
X1065Y2026D03*
X965Y2026D03*
X865Y2026D03*
X765Y2026D03*
X2525Y2026D03*
X2425Y2026D03*
X2325Y2026D03*
X2225Y2026D03*
X2125Y2026D03*
X2025Y2026D03*
X1925Y2026D03*
X1825Y2026D03*
G54D15*
X1225Y126D03*
X1125Y126D03*
X1325Y126D03*
X1425Y126D03*
X1525Y126D03*
X1625Y126D03*
X1725Y126D03*
X1825Y126D03*
X2025Y126D03*
G54D13*
X465Y326D03*
X365Y326D03*
X265Y326D03*
X465Y926D03*
X365Y926D03*
X265Y926D03*
X465Y1526D03*
X365Y1526D03*
X265Y1526D03*
G54D17*
X1895Y578D03*
X1655Y618D03*
X555Y1218D03*
X1435Y1728D03*
X2025Y578D03*
G54D18*
X2565Y626D03*
X2565Y326D03*
G54D19*
X2544Y629D02*
X1688Y724D01*
D02*
X1473Y1851D02*
X1475Y1858D01*
X1475Y1858D02*
X1554Y1951D01*
D02*
X2205Y1964D02*
X2223Y1984D01*
D02*
X1554Y1951D02*
X2205Y1964D01*
D02*
X2223Y1984D02*
X2224Y2001D01*
D02*
X1646Y1409D02*
X1445Y1218D01*
D02*
X1445Y1218D02*
X1425Y151D01*
D02*
X1872Y581D02*
X1678Y614D01*
D02*
X2544Y331D02*
X1835Y508D01*
X1835Y508D02*
X1835Y548D01*
X1835Y548D02*
X1595Y548D01*
X1595Y548D02*
X1595Y698D01*
X1595Y698D02*
X1582Y710D01*
G54D20*
D02*
X1547Y2009D02*
X1335Y1798D01*
D02*
X1335Y1798D02*
X345Y1798D01*
D02*
X345Y1798D02*
X283Y1743D01*
D02*
X265Y951D02*
X265Y1102D01*
D02*
X532Y1214D02*
X315Y1178D01*
D02*
X315Y1178D02*
X282Y1144D01*
D02*
X1419Y1711D02*
X282Y544D01*
G54D19*
D02*
X2047Y571D02*
X2544Y430D01*
D02*
X1495Y1190D02*
X1495Y487D01*
D02*
X1698Y1265D02*
X1495Y1190D01*
D02*
X1670Y1801D02*
X1723Y1546D01*
D02*
X1495Y487D02*
X1523Y151D01*
D02*
X1723Y1546D02*
X1698Y1265D01*
G04 End of Copper0*
M02*