G04 MADE WITH FRITZING*
G04 WWW.FRITZING.ORG*
G04 DOUBLE SIDED*
G04 HOLES PLATED*
G04 CONTOUR ON CENTER OF CONTOUR VECTOR*
%ASAXBY*%
%FSLAX23Y23*%
%MOIN*%
%OFA0B0*%
%SFA1.0B1.0*%
%ADD10C,0.062992*%
%ADD11C,0.075000*%
%ADD12C,0.066194*%
%ADD13C,0.066222*%
%ADD14C,0.170000*%
%ADD15C,0.064000*%
%ADD16C,0.074000*%
%ADD17C,0.078000*%
%ADD18C,0.090551*%
%ADD19C,0.075433*%
%ADD20R,0.062992X0.031496*%
%ADD21R,0.062992X0.062992*%
%ADD22C,0.048000*%
%ADD23C,0.024000*%
%ADD24C,0.008000*%
%ADD25R,0.001000X0.001000*%
%LNCOPPER1*%
G90*
G70*
G54D10*
X2565Y626D03*
X2565Y725D03*
X2565Y326D03*
X2565Y425D03*
G54D11*
X1665Y1126D03*
X1665Y726D03*
X1565Y1126D03*
X1565Y726D03*
G54D12*
X2125Y126D03*
X2225Y126D03*
X2325Y126D03*
X2425Y126D03*
X2525Y126D03*
G54D13*
X1665Y2026D03*
X1565Y2026D03*
X1465Y2026D03*
X1365Y2026D03*
X1265Y2026D03*
X1165Y2026D03*
X1065Y2026D03*
X965Y2026D03*
X865Y2026D03*
X765Y2026D03*
X2525Y2026D03*
X2425Y2026D03*
X2325Y2026D03*
X2225Y2026D03*
X2125Y2026D03*
X2025Y2026D03*
X1925Y2026D03*
X1825Y2026D03*
G54D12*
X1225Y126D03*
X1125Y126D03*
X1325Y126D03*
X1425Y126D03*
X1525Y126D03*
X1625Y126D03*
X1725Y126D03*
X1825Y126D03*
X2025Y126D03*
G54D14*
X265Y1962D03*
X265Y1726D03*
X450Y1844D03*
X265Y1962D03*
X265Y1726D03*
X450Y1844D03*
G54D15*
X1865Y1426D03*
X1765Y1426D03*
X1665Y1426D03*
X1565Y1426D03*
X1465Y1426D03*
X1465Y1826D03*
X1565Y1826D03*
X1665Y1826D03*
X1765Y1826D03*
X1865Y1826D03*
X1965Y1826D03*
X1965Y1426D03*
G54D16*
X1265Y1426D03*
X1265Y1170D03*
X1087Y1426D03*
X1087Y1170D03*
X1265Y1426D03*
X1265Y1170D03*
X1087Y1426D03*
X1087Y1170D03*
X965Y1426D03*
X965Y1170D03*
X787Y1426D03*
X787Y1170D03*
X965Y1426D03*
X965Y1170D03*
X787Y1426D03*
X787Y1170D03*
X1265Y1026D03*
X1265Y770D03*
X1087Y1026D03*
X1087Y770D03*
X1265Y1026D03*
X1265Y770D03*
X1087Y1026D03*
X1087Y770D03*
X965Y1026D03*
X965Y770D03*
X787Y1026D03*
X787Y770D03*
X965Y1026D03*
X965Y770D03*
X787Y1026D03*
X787Y770D03*
X565Y926D03*
X465Y976D03*
X565Y1026D03*
X565Y1126D03*
X565Y1226D03*
X465Y1076D03*
X465Y1176D03*
X465Y1276D03*
X565Y926D03*
X465Y976D03*
X565Y1026D03*
X565Y1126D03*
X565Y1226D03*
X465Y1076D03*
X465Y1176D03*
X465Y1276D03*
G54D11*
X965Y326D03*
X1365Y326D03*
X965Y426D03*
X1365Y426D03*
X965Y526D03*
X1365Y526D03*
X965Y626D03*
X1365Y626D03*
G54D17*
X2365Y1626D03*
X2365Y1526D03*
X2365Y1426D03*
X2265Y1626D03*
X2265Y1526D03*
X2265Y1426D03*
X2165Y1626D03*
X2165Y1526D03*
X2165Y1426D03*
G54D16*
X565Y226D03*
X465Y276D03*
X565Y326D03*
X565Y426D03*
X565Y526D03*
X465Y376D03*
X465Y476D03*
X465Y576D03*
X565Y226D03*
X465Y276D03*
X565Y326D03*
X565Y426D03*
X565Y526D03*
X465Y376D03*
X465Y476D03*
X465Y576D03*
G54D17*
X2665Y226D03*
X2665Y126D03*
G54D18*
X2482Y1276D03*
X2582Y1176D03*
X2482Y1076D03*
X2682Y1076D03*
X2682Y1276D03*
G54D19*
X1655Y1308D03*
X895Y928D03*
X1575Y588D03*
X1965Y988D03*
X1435Y798D03*
X1895Y388D03*
X1025Y888D03*
X1895Y1098D03*
X525Y798D03*
X805Y218D03*
X2015Y398D03*
X1285Y1928D03*
X2035Y1308D03*
G54D20*
X1794Y1226D03*
X1794Y1176D03*
X1794Y1126D03*
X1794Y1076D03*
X1794Y1026D03*
X1794Y976D03*
X1794Y926D03*
X1794Y877D03*
X1794Y827D03*
X1794Y777D03*
X1794Y727D03*
X1794Y677D03*
X1794Y627D03*
X1794Y577D03*
X1794Y527D03*
X1794Y477D03*
X1794Y427D03*
X2365Y1226D03*
X2365Y1176D03*
X2365Y1126D03*
X2365Y1076D03*
X2365Y1026D03*
X2365Y976D03*
X2365Y926D03*
X2365Y877D03*
X2365Y827D03*
X2365Y777D03*
X2365Y727D03*
X2365Y677D03*
X2365Y627D03*
X2365Y577D03*
X2365Y527D03*
X2365Y477D03*
X2365Y427D03*
G54D21*
X2565Y626D03*
X2565Y326D03*
G54D22*
X537Y440D02*
X492Y462D01*
D02*
X390Y1985D02*
X345Y1977D01*
D02*
X584Y1985D02*
X390Y1985D01*
D02*
X479Y1316D02*
X582Y1610D01*
D02*
X582Y1610D02*
X584Y1985D01*
D02*
X537Y1240D02*
X492Y1262D01*
D02*
X537Y1140D02*
X492Y1162D01*
D02*
X537Y540D02*
X492Y562D01*
D02*
X357Y1179D02*
X434Y1177D01*
D02*
X288Y1660D02*
X359Y1460D01*
D02*
X359Y1460D02*
X357Y1179D01*
D02*
X362Y532D02*
X428Y496D01*
D02*
X357Y1179D02*
X362Y532D01*
D02*
X698Y661D02*
X594Y556D01*
D02*
X670Y1607D02*
X700Y1195D01*
D02*
X700Y1195D02*
X698Y661D01*
D02*
X348Y2046D02*
X665Y2046D01*
D02*
X665Y2046D02*
X670Y1607D01*
D02*
X322Y2020D02*
X348Y2046D01*
D02*
X637Y748D02*
X487Y598D01*
D02*
X640Y1193D02*
X637Y748D01*
D02*
X603Y1209D02*
X640Y1193D01*
G54D23*
D02*
X2391Y1176D02*
X2541Y1176D01*
D02*
X2468Y1082D02*
X2388Y1116D01*
D02*
X2444Y1091D02*
X2468Y1082D01*
D02*
X2522Y1076D02*
X2641Y1076D01*
D02*
X2522Y1276D02*
X2641Y1276D01*
D02*
X2682Y1117D02*
X2682Y1236D01*
D02*
X2389Y1236D02*
X2444Y1260D01*
D02*
X1768Y299D02*
X1732Y156D01*
D02*
X1792Y417D02*
X1768Y299D01*
G54D24*
D02*
X2339Y732D02*
X2315Y738D01*
X2315Y738D02*
X2315Y768D01*
X2315Y768D02*
X2265Y768D01*
X2265Y768D02*
X2265Y828D01*
X2265Y828D02*
X2005Y1098D01*
X2005Y1098D02*
X1918Y1098D01*
D02*
X2339Y782D02*
X2315Y788D01*
X2315Y788D02*
X2310Y828D01*
X2310Y828D02*
X1895Y1243D01*
X1895Y1243D02*
X1845Y1258D01*
X1845Y1258D02*
X1745Y1258D01*
X1745Y1258D02*
X1583Y1140D01*
D02*
X1768Y683D02*
X1745Y688D01*
X1745Y688D02*
X1745Y728D01*
X1745Y728D02*
X1505Y958D01*
X1505Y958D02*
X1505Y1148D01*
X1505Y1148D02*
X1559Y1401D01*
D02*
X2306Y2010D02*
X2255Y1968D01*
X2255Y1968D02*
X1705Y1968D01*
X1705Y1968D02*
X1583Y1844D01*
D02*
X1466Y1401D02*
X1485Y878D01*
X1485Y878D02*
X1505Y698D01*
X1505Y698D02*
X1770Y587D01*
D02*
X1657Y1331D02*
X1663Y1401D01*
D02*
X2148Y1444D02*
X1825Y1773D01*
X1825Y1773D02*
X1535Y1783D01*
X1535Y1783D02*
X1515Y1798D01*
X1515Y1798D02*
X1515Y1988D01*
X1515Y1988D02*
X1545Y2011D01*
D02*
X1353Y446D02*
X1115Y828D01*
X1115Y828D02*
X1090Y1001D01*
D02*
X2205Y112D02*
X2155Y78D01*
X2155Y78D02*
X1685Y78D01*
X1685Y78D02*
X1675Y88D01*
X1675Y88D02*
X1675Y158D01*
X1675Y158D02*
X1715Y198D01*
X1715Y198D02*
X1715Y238D01*
X1715Y238D02*
X1725Y238D01*
X1725Y238D02*
X1725Y278D01*
X1725Y278D02*
X1735Y278D01*
X1735Y278D02*
X1735Y328D01*
X1735Y328D02*
X1387Y420D01*
D02*
X2347Y1409D02*
X2315Y1378D01*
X2315Y1378D02*
X2115Y1378D01*
X2115Y1378D02*
X2105Y1448D01*
X2105Y1448D02*
X1415Y1788D01*
X1415Y1788D02*
X1420Y1858D01*
X1420Y1858D02*
X1435Y1873D01*
X1435Y1873D02*
X1460Y2002D01*
D02*
X1552Y592D02*
X1388Y622D01*
D02*
X1092Y1401D02*
X1095Y1388D01*
X1095Y1388D02*
X1220Y728D01*
X1220Y728D02*
X1346Y639D01*
D02*
X1348Y342D02*
X905Y748D01*
X905Y748D02*
X815Y868D01*
X815Y868D02*
X791Y1001D01*
D02*
X2311Y106D02*
X2305Y98D01*
X2305Y98D02*
X2175Y68D01*
X2175Y68D02*
X2175Y58D01*
X2175Y58D02*
X1655Y58D01*
X1655Y58D02*
X1575Y88D01*
X1575Y88D02*
X1575Y158D01*
X1575Y158D02*
X1383Y312D01*
D02*
X886Y949D02*
X845Y1048D01*
X845Y1048D02*
X1055Y1478D01*
X1055Y1478D02*
X1415Y1888D01*
X1415Y1888D02*
X1415Y2058D01*
X1415Y2058D02*
X1435Y2073D01*
X1435Y2073D02*
X1705Y2073D01*
X1705Y2073D02*
X1802Y2035D01*
D02*
X2240Y1526D02*
X2189Y1526D01*
D02*
X2340Y1526D02*
X2289Y1526D01*
D02*
X1685Y1841D02*
X1735Y1878D01*
X1735Y1878D02*
X1905Y1878D01*
X1905Y1878D02*
X1915Y1798D01*
X1915Y1798D02*
X2148Y1544D01*
D02*
X1245Y1043D02*
X1205Y1078D01*
X1205Y1078D02*
X1205Y1188D01*
X1205Y1188D02*
X1259Y1401D01*
D02*
X975Y1003D02*
X1016Y909D01*
D02*
X1820Y475D02*
X1895Y468D01*
X1895Y468D02*
X1895Y411D01*
D02*
X1421Y816D02*
X1280Y1006D01*
D02*
X1977Y968D02*
X2315Y388D01*
X2315Y388D02*
X2375Y98D01*
X2375Y98D02*
X2195Y38D01*
X2195Y38D02*
X1575Y38D01*
X1575Y38D02*
X1275Y78D01*
X1275Y78D02*
X1270Y158D01*
X1270Y158D02*
X1255Y173D01*
X1255Y173D02*
X625Y318D01*
X625Y318D02*
X579Y247D01*
D02*
X1912Y2047D02*
X1905Y2058D01*
X1905Y2058D02*
X1725Y2098D01*
X1725Y2098D02*
X325Y2098D01*
X325Y2098D02*
X175Y2038D01*
X175Y2038D02*
X165Y2018D01*
X165Y2018D02*
X165Y1678D01*
X165Y1678D02*
X315Y1468D01*
X315Y1468D02*
X315Y518D01*
X315Y518D02*
X452Y298D01*
D02*
X2559Y745D02*
X2485Y1028D01*
X2485Y1028D02*
X2484Y1041D01*
D02*
X2549Y439D02*
X2515Y468D01*
X2515Y468D02*
X2515Y678D01*
X2515Y678D02*
X2549Y710D01*
D02*
X2657Y249D02*
X2605Y398D01*
X2605Y398D02*
X2583Y413D01*
D02*
X1784Y1443D02*
X1825Y1478D01*
X1825Y1478D02*
X1995Y1478D01*
X1995Y1478D02*
X2145Y1298D01*
X2145Y1298D02*
X2058Y1306D01*
D02*
X1079Y2006D02*
X1085Y1998D01*
X1085Y1998D02*
X1263Y1935D01*
D02*
X1998Y381D02*
X1755Y148D01*
X1755Y148D02*
X1745Y141D01*
D02*
X965Y403D02*
X965Y349D01*
D02*
X965Y503D02*
X965Y449D01*
D02*
X965Y603D02*
X965Y549D01*
D02*
X551Y305D02*
X505Y238D01*
X505Y238D02*
X525Y168D01*
X525Y168D02*
X782Y214D01*
D02*
X487Y365D02*
X542Y338D01*
D02*
X551Y1005D02*
X505Y938D01*
X505Y938D02*
X522Y821D01*
G54D25*
X428Y1314D02*
X501Y1314D01*
X428Y1313D02*
X501Y1313D01*
X428Y1312D02*
X501Y1312D01*
X428Y1311D02*
X501Y1311D01*
X428Y1310D02*
X501Y1310D01*
X428Y1309D02*
X501Y1309D01*
X428Y1308D02*
X501Y1308D01*
X428Y1307D02*
X501Y1307D01*
X428Y1306D02*
X501Y1306D01*
X428Y1305D02*
X501Y1305D01*
X428Y1304D02*
X501Y1304D01*
X428Y1303D02*
X501Y1303D01*
X428Y1302D02*
X501Y1302D01*
X428Y1301D02*
X501Y1301D01*
X428Y1300D02*
X501Y1300D01*
X428Y1299D02*
X501Y1299D01*
X428Y1298D02*
X501Y1298D01*
X428Y1297D02*
X463Y1297D01*
X465Y1297D02*
X501Y1297D01*
X428Y1296D02*
X458Y1296D01*
X471Y1296D02*
X501Y1296D01*
X428Y1295D02*
X455Y1295D01*
X473Y1295D02*
X501Y1295D01*
X428Y1294D02*
X453Y1294D01*
X475Y1294D02*
X501Y1294D01*
X428Y1293D02*
X452Y1293D01*
X477Y1293D02*
X501Y1293D01*
X428Y1292D02*
X451Y1292D01*
X478Y1292D02*
X501Y1292D01*
X428Y1291D02*
X450Y1291D01*
X479Y1291D02*
X501Y1291D01*
X428Y1290D02*
X449Y1290D01*
X480Y1290D02*
X501Y1290D01*
X428Y1289D02*
X448Y1289D01*
X481Y1289D02*
X501Y1289D01*
X428Y1288D02*
X447Y1288D01*
X481Y1288D02*
X501Y1288D01*
X428Y1287D02*
X447Y1287D01*
X482Y1287D02*
X501Y1287D01*
X428Y1286D02*
X446Y1286D01*
X482Y1286D02*
X501Y1286D01*
X428Y1285D02*
X446Y1285D01*
X483Y1285D02*
X501Y1285D01*
X428Y1284D02*
X445Y1284D01*
X483Y1284D02*
X501Y1284D01*
X428Y1283D02*
X445Y1283D01*
X483Y1283D02*
X501Y1283D01*
X428Y1282D02*
X445Y1282D01*
X484Y1282D02*
X501Y1282D01*
X428Y1281D02*
X444Y1281D01*
X484Y1281D02*
X501Y1281D01*
X428Y1280D02*
X444Y1280D01*
X484Y1280D02*
X501Y1280D01*
X428Y1279D02*
X444Y1279D01*
X484Y1279D02*
X501Y1279D01*
X428Y1278D02*
X444Y1278D01*
X484Y1278D02*
X501Y1278D01*
X428Y1277D02*
X444Y1277D01*
X484Y1277D02*
X501Y1277D01*
X428Y1276D02*
X444Y1276D01*
X484Y1276D02*
X501Y1276D01*
X428Y1275D02*
X444Y1275D01*
X484Y1275D02*
X501Y1275D01*
X428Y1274D02*
X444Y1274D01*
X484Y1274D02*
X501Y1274D01*
X428Y1273D02*
X445Y1273D01*
X484Y1273D02*
X501Y1273D01*
X428Y1272D02*
X445Y1272D01*
X484Y1272D02*
X501Y1272D01*
X428Y1271D02*
X445Y1271D01*
X483Y1271D02*
X501Y1271D01*
X428Y1270D02*
X445Y1270D01*
X483Y1270D02*
X501Y1270D01*
X428Y1269D02*
X446Y1269D01*
X482Y1269D02*
X501Y1269D01*
X428Y1268D02*
X446Y1268D01*
X482Y1268D02*
X501Y1268D01*
X428Y1267D02*
X447Y1267D01*
X481Y1267D02*
X501Y1267D01*
X428Y1266D02*
X448Y1266D01*
X481Y1266D02*
X501Y1266D01*
X428Y1265D02*
X449Y1265D01*
X480Y1265D02*
X501Y1265D01*
X428Y1264D02*
X449Y1264D01*
X479Y1264D02*
X501Y1264D01*
X428Y1263D02*
X450Y1263D01*
X478Y1263D02*
X501Y1263D01*
X428Y1262D02*
X452Y1262D01*
X477Y1262D02*
X501Y1262D01*
X428Y1261D02*
X453Y1261D01*
X476Y1261D02*
X501Y1261D01*
X428Y1260D02*
X455Y1260D01*
X474Y1260D02*
X501Y1260D01*
X428Y1259D02*
X457Y1259D01*
X472Y1259D02*
X501Y1259D01*
X428Y1258D02*
X461Y1258D01*
X468Y1258D02*
X501Y1258D01*
X428Y1257D02*
X501Y1257D01*
X428Y1256D02*
X501Y1256D01*
X428Y1255D02*
X501Y1255D01*
X428Y1254D02*
X501Y1254D01*
X428Y1253D02*
X501Y1253D01*
X428Y1252D02*
X501Y1252D01*
X428Y1251D02*
X501Y1251D01*
X428Y1250D02*
X501Y1250D01*
X428Y1249D02*
X501Y1249D01*
X428Y1248D02*
X501Y1248D01*
X428Y1247D02*
X501Y1247D01*
X428Y1246D02*
X501Y1246D01*
X428Y1245D02*
X501Y1245D01*
X428Y1244D02*
X501Y1244D01*
X428Y1243D02*
X501Y1243D01*
X428Y1242D02*
X501Y1242D01*
X428Y1241D02*
X501Y1241D01*
X428Y614D02*
X501Y614D01*
X428Y613D02*
X501Y613D01*
X428Y612D02*
X501Y612D01*
X428Y611D02*
X501Y611D01*
X428Y610D02*
X501Y610D01*
X428Y609D02*
X501Y609D01*
X428Y608D02*
X501Y608D01*
X428Y607D02*
X501Y607D01*
X428Y606D02*
X501Y606D01*
X428Y605D02*
X501Y605D01*
X428Y604D02*
X501Y604D01*
X428Y603D02*
X501Y603D01*
X428Y602D02*
X501Y602D01*
X428Y601D02*
X501Y601D01*
X428Y600D02*
X501Y600D01*
X428Y599D02*
X501Y599D01*
X428Y598D02*
X501Y598D01*
X428Y597D02*
X461Y597D01*
X467Y597D02*
X501Y597D01*
X428Y596D02*
X457Y596D01*
X471Y596D02*
X501Y596D01*
X428Y595D02*
X455Y595D01*
X474Y595D02*
X501Y595D01*
X428Y594D02*
X453Y594D01*
X475Y594D02*
X501Y594D01*
X428Y593D02*
X452Y593D01*
X477Y593D02*
X501Y593D01*
X428Y592D02*
X450Y592D01*
X478Y592D02*
X501Y592D01*
X428Y591D02*
X449Y591D01*
X479Y591D02*
X501Y591D01*
X428Y590D02*
X449Y590D01*
X480Y590D02*
X501Y590D01*
X428Y589D02*
X448Y589D01*
X481Y589D02*
X501Y589D01*
X428Y588D02*
X447Y588D01*
X481Y588D02*
X501Y588D01*
X428Y587D02*
X447Y587D01*
X482Y587D02*
X501Y587D01*
X428Y586D02*
X446Y586D01*
X482Y586D02*
X501Y586D01*
X428Y585D02*
X446Y585D01*
X483Y585D02*
X501Y585D01*
X428Y584D02*
X445Y584D01*
X483Y584D02*
X501Y584D01*
X428Y583D02*
X445Y583D01*
X484Y583D02*
X501Y583D01*
X428Y582D02*
X445Y582D01*
X484Y582D02*
X501Y582D01*
X428Y581D02*
X444Y581D01*
X484Y581D02*
X501Y581D01*
X428Y580D02*
X444Y580D01*
X484Y580D02*
X501Y580D01*
X428Y579D02*
X444Y579D01*
X484Y579D02*
X501Y579D01*
X428Y578D02*
X444Y578D01*
X484Y578D02*
X501Y578D01*
X428Y577D02*
X444Y577D01*
X484Y577D02*
X501Y577D01*
X428Y576D02*
X444Y576D01*
X484Y576D02*
X501Y576D01*
X428Y575D02*
X444Y575D01*
X484Y575D02*
X501Y575D01*
X428Y574D02*
X444Y574D01*
X484Y574D02*
X501Y574D01*
X428Y573D02*
X445Y573D01*
X484Y573D02*
X501Y573D01*
X428Y572D02*
X445Y572D01*
X483Y572D02*
X501Y572D01*
X428Y571D02*
X445Y571D01*
X483Y571D02*
X501Y571D01*
X428Y570D02*
X446Y570D01*
X483Y570D02*
X501Y570D01*
X428Y569D02*
X446Y569D01*
X482Y569D02*
X501Y569D01*
X428Y568D02*
X447Y568D01*
X482Y568D02*
X501Y568D01*
X428Y567D02*
X447Y567D01*
X481Y567D02*
X501Y567D01*
X428Y566D02*
X448Y566D01*
X481Y566D02*
X501Y566D01*
X428Y565D02*
X449Y565D01*
X480Y565D02*
X501Y565D01*
X428Y564D02*
X450Y564D01*
X479Y564D02*
X501Y564D01*
X428Y563D02*
X451Y563D01*
X478Y563D02*
X501Y563D01*
X428Y562D02*
X452Y562D01*
X477Y562D02*
X501Y562D01*
X428Y561D02*
X453Y561D01*
X475Y561D02*
X501Y561D01*
X428Y560D02*
X455Y560D01*
X473Y560D02*
X501Y560D01*
X428Y559D02*
X457Y559D01*
X471Y559D02*
X501Y559D01*
X428Y558D02*
X463Y558D01*
X466Y558D02*
X501Y558D01*
X428Y557D02*
X501Y557D01*
X428Y556D02*
X501Y556D01*
X428Y555D02*
X501Y555D01*
X428Y554D02*
X501Y554D01*
X428Y553D02*
X501Y553D01*
X428Y552D02*
X501Y552D01*
X428Y551D02*
X501Y551D01*
X428Y550D02*
X501Y550D01*
X428Y549D02*
X501Y549D01*
X428Y548D02*
X501Y548D01*
X428Y547D02*
X501Y547D01*
X428Y546D02*
X501Y546D01*
X428Y545D02*
X501Y545D01*
X428Y544D02*
X501Y544D01*
X428Y543D02*
X501Y543D01*
X428Y542D02*
X501Y542D01*
X428Y541D02*
X501Y541D01*
D02*
G04 End of Copper1*
M02*