G04 MADE WITH FRITZING*
G04 WWW.FRITZING.ORG*
G04 DOUBLE SIDED*
G04 HOLES PLATED*
G04 CONTOUR ON CENTER OF CONTOUR VECTOR*
%ASAXBY*%
%FSLAX23Y23*%
%MOIN*%
%OFA0B0*%
%SFA1.0B1.0*%
%ADD10C,0.062992*%
%ADD11C,0.075000*%
%ADD12C,0.066194*%
%ADD13C,0.066222*%
%ADD14C,0.170000*%
%ADD15C,0.064000*%
%ADD16C,0.074000*%
%ADD17C,0.078000*%
%ADD18C,0.090551*%
%ADD19C,0.070866*%
%ADD20C,0.075433*%
%ADD21R,0.062992X0.062992*%
%ADD22C,0.048000*%
%ADD23C,0.008000*%
%ADD24R,0.001000X0.001000*%
%LNCOPPER0*%
G90*
G70*
G54D10*
X2565Y626D03*
X2565Y725D03*
X2565Y326D03*
X2565Y425D03*
G54D11*
X1665Y1126D03*
X1665Y726D03*
X1565Y1126D03*
X1565Y726D03*
G54D12*
X2125Y126D03*
X2225Y126D03*
X2325Y126D03*
X2425Y126D03*
X2525Y126D03*
G54D13*
X1665Y2026D03*
X1565Y2026D03*
X1465Y2026D03*
X1365Y2026D03*
X1265Y2026D03*
X1165Y2026D03*
X1065Y2026D03*
X965Y2026D03*
X865Y2026D03*
X765Y2026D03*
X2525Y2026D03*
X2425Y2026D03*
X2325Y2026D03*
X2225Y2026D03*
X2125Y2026D03*
X2025Y2026D03*
X1925Y2026D03*
X1825Y2026D03*
G54D12*
X1225Y126D03*
X1125Y126D03*
X1325Y126D03*
X1425Y126D03*
X1525Y126D03*
X1625Y126D03*
X1725Y126D03*
X1825Y126D03*
X2025Y126D03*
G54D14*
X265Y1962D03*
X265Y1726D03*
X450Y1844D03*
G54D15*
X1865Y1426D03*
X1765Y1426D03*
X1665Y1426D03*
X1565Y1426D03*
X1465Y1426D03*
X1465Y1826D03*
X1565Y1826D03*
X1665Y1826D03*
X1765Y1826D03*
X1865Y1826D03*
X1965Y1826D03*
X1965Y1426D03*
G54D16*
X1265Y1426D03*
X1265Y1170D03*
X1087Y1426D03*
X1087Y1170D03*
X965Y1426D03*
X965Y1170D03*
X787Y1426D03*
X787Y1170D03*
X1265Y1026D03*
X1265Y770D03*
X1087Y1026D03*
X1087Y770D03*
X965Y1026D03*
X965Y770D03*
X787Y1026D03*
X787Y770D03*
X565Y926D03*
X465Y976D03*
X565Y1026D03*
X565Y1126D03*
X565Y1226D03*
X465Y1076D03*
X465Y1176D03*
X465Y1276D03*
G54D11*
X965Y326D03*
X1365Y326D03*
X965Y426D03*
X1365Y426D03*
X965Y526D03*
X1365Y526D03*
X965Y626D03*
X1365Y626D03*
G54D17*
X2365Y1626D03*
X2365Y1526D03*
X2365Y1426D03*
X2265Y1626D03*
X2265Y1526D03*
X2265Y1426D03*
X2165Y1626D03*
X2165Y1526D03*
X2165Y1426D03*
G54D16*
X565Y226D03*
X465Y276D03*
X565Y326D03*
X565Y426D03*
X565Y526D03*
X465Y376D03*
X465Y476D03*
X465Y576D03*
G54D18*
X2482Y1276D03*
X2582Y1176D03*
X2482Y1076D03*
X2682Y1076D03*
X2682Y1276D03*
G54D19*
X774Y1774D03*
X971Y1774D03*
G54D20*
X1895Y1038D03*
X1955Y1148D03*
X2265Y958D03*
X2465Y798D03*
X1645Y588D03*
X1655Y1308D03*
X965Y918D03*
X1325Y1528D03*
X1325Y1848D03*
X1215Y918D03*
X995Y1338D03*
X1185Y1558D03*
X1215Y1918D03*
X1865Y338D03*
X2205Y1068D03*
X1965Y1308D03*
X2155Y1298D03*
X2065Y888D03*
X2205Y748D03*
X2375Y228D03*
G54D21*
X2565Y626D03*
X2565Y326D03*
G54D22*
X357Y1179D02*
X357Y1460D01*
D02*
X359Y526D02*
X357Y1179D01*
D02*
X357Y1460D02*
X291Y1649D01*
D02*
X427Y494D02*
X359Y526D01*
D02*
X357Y1179D02*
X423Y1177D01*
D02*
X502Y1158D02*
X527Y1145D01*
D02*
X527Y445D02*
X502Y457D01*
D02*
X527Y1245D02*
X502Y1258D01*
D02*
X527Y545D02*
X502Y558D01*
D02*
X393Y1985D02*
X584Y1985D01*
D02*
X582Y1610D02*
X479Y1316D01*
D02*
X584Y1985D02*
X582Y1610D01*
D02*
X345Y1976D02*
X393Y1985D01*
D02*
X2335Y1526D02*
X2295Y1526D01*
D02*
X2335Y1626D02*
X2295Y1626D01*
D02*
X2235Y1626D02*
X2195Y1626D01*
D02*
X2235Y1526D02*
X2195Y1526D01*
D02*
X2057Y1523D02*
X2057Y1104D01*
D02*
X2057Y1104D02*
X1545Y163D01*
D02*
X2124Y1525D02*
X2057Y1523D01*
D02*
X1065Y1774D02*
X1065Y1985D01*
D02*
X2135Y1626D02*
X1380Y1630D01*
D02*
X1380Y1630D02*
X1065Y1774D01*
G54D23*
D02*
X1881Y1019D02*
X1679Y745D01*
D02*
X1688Y1128D02*
X1932Y1146D01*
D02*
X2265Y934D02*
X2265Y868D01*
X2265Y868D02*
X2335Y798D01*
X2335Y798D02*
X2442Y798D01*
D02*
X2211Y2006D02*
X2205Y1998D01*
X2205Y1998D02*
X1475Y1858D01*
X1475Y1858D02*
X1473Y1851D01*
D02*
X1633Y608D02*
X1576Y706D01*
D02*
X1443Y143D02*
X1505Y198D01*
X1505Y198D02*
X1505Y1148D01*
X1505Y1148D02*
X1639Y1291D01*
D02*
X2001Y119D02*
X1855Y78D01*
X1855Y78D02*
X1385Y78D01*
X1385Y78D02*
X1375Y88D01*
X1375Y88D02*
X1375Y158D01*
X1375Y158D02*
X1485Y588D01*
X1485Y588D02*
X1387Y619D01*
D02*
X2103Y115D02*
X2005Y68D01*
X2005Y68D02*
X2005Y58D01*
X2005Y58D02*
X1365Y58D01*
X1365Y58D02*
X1275Y98D01*
X1275Y98D02*
X1275Y448D01*
X1275Y448D02*
X1348Y511D01*
D02*
X985Y905D02*
X1135Y808D01*
X1135Y808D02*
X1350Y544D01*
D02*
X1306Y1515D02*
X1205Y1448D01*
X1205Y1448D02*
X1205Y1408D01*
X1205Y1408D02*
X585Y958D01*
X585Y958D02*
X578Y947D01*
D02*
X1643Y2015D02*
X1346Y1858D01*
D02*
X1193Y926D02*
X1025Y988D01*
X1025Y988D02*
X615Y908D01*
X615Y908D02*
X605Y868D01*
X605Y868D02*
X545Y868D01*
X545Y868D02*
X490Y948D01*
X490Y948D02*
X482Y957D01*
D02*
X1017Y1344D02*
X1105Y1368D01*
X1105Y1368D02*
X1225Y1548D01*
X1225Y1548D02*
X1208Y1552D01*
D02*
X973Y1402D02*
X988Y1360D01*
D02*
X1649Y1806D02*
X1625Y1778D01*
X1625Y1778D02*
X1265Y1788D01*
X1265Y1788D02*
X1223Y1896D01*
D02*
X1864Y361D02*
X1855Y648D01*
X1855Y648D02*
X2205Y878D01*
X2205Y878D02*
X2205Y1044D01*
D02*
X1942Y1313D02*
X1715Y1368D01*
X1715Y1368D02*
X1405Y1368D01*
X1405Y1368D02*
X1275Y1050D01*
D02*
X2543Y143D02*
X2615Y208D01*
X2615Y208D02*
X2615Y748D01*
X2615Y748D02*
X2325Y1018D01*
X2325Y1018D02*
X2268Y1402D01*
D02*
X2150Y1275D02*
X2070Y910D01*
D02*
X2212Y726D02*
X2368Y250D01*
D02*
X1907Y2043D02*
X1865Y2083D01*
D02*
X1465Y2110D02*
X90Y2096D01*
D02*
X1865Y2083D02*
X1465Y2110D01*
D02*
X90Y2096D02*
X90Y1973D01*
D02*
X90Y1973D02*
X87Y1526D01*
D02*
X87Y1526D02*
X315Y1458D01*
X315Y1458D02*
X315Y508D01*
X315Y508D02*
X451Y297D01*
D02*
X590Y326D02*
X942Y326D01*
D02*
X487Y365D02*
X542Y338D01*
D02*
X540Y1026D02*
X415Y1028D01*
X415Y1028D02*
X405Y958D01*
X405Y958D02*
X505Y858D01*
X505Y858D02*
X944Y637D01*
D02*
X447Y1059D02*
X415Y1028D01*
D02*
X1645Y141D02*
X1695Y178D01*
X1695Y178D02*
X2165Y178D01*
X2165Y178D02*
X2175Y98D01*
X2175Y98D02*
X2025Y38D01*
X2025Y38D02*
X1335Y38D01*
X1335Y38D02*
X1095Y68D01*
X1095Y68D02*
X975Y306D01*
D02*
X2474Y1311D02*
X2415Y1588D01*
X2415Y1588D02*
X2375Y1588D01*
X2375Y1588D02*
X2371Y1602D01*
D02*
X1780Y1805D02*
X1785Y1798D01*
X1785Y1798D02*
X2155Y1668D01*
X2155Y1668D02*
X2159Y1650D01*
G54D24*
X428Y1314D02*
X501Y1314D01*
X428Y1313D02*
X501Y1313D01*
X428Y1312D02*
X501Y1312D01*
X428Y1311D02*
X501Y1311D01*
X428Y1310D02*
X501Y1310D01*
X428Y1309D02*
X501Y1309D01*
X428Y1308D02*
X501Y1308D01*
X428Y1307D02*
X501Y1307D01*
X428Y1306D02*
X501Y1306D01*
X428Y1305D02*
X501Y1305D01*
X428Y1304D02*
X501Y1304D01*
X428Y1303D02*
X501Y1303D01*
X428Y1302D02*
X501Y1302D01*
X428Y1301D02*
X501Y1301D01*
X428Y1300D02*
X501Y1300D01*
X428Y1299D02*
X501Y1299D01*
X428Y1298D02*
X501Y1298D01*
X428Y1297D02*
X463Y1297D01*
X465Y1297D02*
X501Y1297D01*
X428Y1296D02*
X458Y1296D01*
X471Y1296D02*
X501Y1296D01*
X428Y1295D02*
X455Y1295D01*
X473Y1295D02*
X501Y1295D01*
X428Y1294D02*
X453Y1294D01*
X475Y1294D02*
X501Y1294D01*
X428Y1293D02*
X452Y1293D01*
X477Y1293D02*
X501Y1293D01*
X428Y1292D02*
X451Y1292D01*
X478Y1292D02*
X501Y1292D01*
X428Y1291D02*
X450Y1291D01*
X479Y1291D02*
X501Y1291D01*
X428Y1290D02*
X449Y1290D01*
X480Y1290D02*
X501Y1290D01*
X428Y1289D02*
X448Y1289D01*
X481Y1289D02*
X501Y1289D01*
X428Y1288D02*
X447Y1288D01*
X481Y1288D02*
X501Y1288D01*
X428Y1287D02*
X447Y1287D01*
X482Y1287D02*
X501Y1287D01*
X428Y1286D02*
X446Y1286D01*
X482Y1286D02*
X501Y1286D01*
X428Y1285D02*
X446Y1285D01*
X483Y1285D02*
X501Y1285D01*
X428Y1284D02*
X445Y1284D01*
X483Y1284D02*
X501Y1284D01*
X428Y1283D02*
X445Y1283D01*
X483Y1283D02*
X501Y1283D01*
X428Y1282D02*
X445Y1282D01*
X484Y1282D02*
X501Y1282D01*
X428Y1281D02*
X444Y1281D01*
X484Y1281D02*
X501Y1281D01*
X428Y1280D02*
X444Y1280D01*
X484Y1280D02*
X501Y1280D01*
X428Y1279D02*
X444Y1279D01*
X484Y1279D02*
X501Y1279D01*
X428Y1278D02*
X444Y1278D01*
X484Y1278D02*
X501Y1278D01*
X428Y1277D02*
X444Y1277D01*
X484Y1277D02*
X501Y1277D01*
X428Y1276D02*
X444Y1276D01*
X484Y1276D02*
X501Y1276D01*
X428Y1275D02*
X444Y1275D01*
X484Y1275D02*
X501Y1275D01*
X428Y1274D02*
X444Y1274D01*
X484Y1274D02*
X501Y1274D01*
X428Y1273D02*
X445Y1273D01*
X484Y1273D02*
X501Y1273D01*
X428Y1272D02*
X445Y1272D01*
X484Y1272D02*
X501Y1272D01*
X428Y1271D02*
X445Y1271D01*
X483Y1271D02*
X501Y1271D01*
X428Y1270D02*
X445Y1270D01*
X483Y1270D02*
X501Y1270D01*
X428Y1269D02*
X446Y1269D01*
X482Y1269D02*
X501Y1269D01*
X428Y1268D02*
X446Y1268D01*
X482Y1268D02*
X501Y1268D01*
X428Y1267D02*
X447Y1267D01*
X481Y1267D02*
X501Y1267D01*
X428Y1266D02*
X448Y1266D01*
X481Y1266D02*
X501Y1266D01*
X428Y1265D02*
X449Y1265D01*
X480Y1265D02*
X501Y1265D01*
X428Y1264D02*
X449Y1264D01*
X479Y1264D02*
X501Y1264D01*
X428Y1263D02*
X450Y1263D01*
X478Y1263D02*
X501Y1263D01*
X428Y1262D02*
X452Y1262D01*
X477Y1262D02*
X501Y1262D01*
X428Y1261D02*
X453Y1261D01*
X476Y1261D02*
X501Y1261D01*
X428Y1260D02*
X455Y1260D01*
X474Y1260D02*
X501Y1260D01*
X428Y1259D02*
X457Y1259D01*
X472Y1259D02*
X501Y1259D01*
X428Y1258D02*
X461Y1258D01*
X468Y1258D02*
X501Y1258D01*
X428Y1257D02*
X501Y1257D01*
X428Y1256D02*
X501Y1256D01*
X428Y1255D02*
X501Y1255D01*
X428Y1254D02*
X501Y1254D01*
X428Y1253D02*
X501Y1253D01*
X428Y1252D02*
X501Y1252D01*
X428Y1251D02*
X501Y1251D01*
X428Y1250D02*
X501Y1250D01*
X428Y1249D02*
X501Y1249D01*
X428Y1248D02*
X501Y1248D01*
X428Y1247D02*
X501Y1247D01*
X428Y1246D02*
X501Y1246D01*
X428Y1245D02*
X501Y1245D01*
X428Y1244D02*
X501Y1244D01*
X428Y1243D02*
X501Y1243D01*
X428Y1242D02*
X501Y1242D01*
X428Y1241D02*
X501Y1241D01*
X428Y614D02*
X501Y614D01*
X428Y613D02*
X501Y613D01*
X428Y612D02*
X501Y612D01*
X428Y611D02*
X501Y611D01*
X428Y610D02*
X501Y610D01*
X428Y609D02*
X501Y609D01*
X428Y608D02*
X501Y608D01*
X428Y607D02*
X501Y607D01*
X428Y606D02*
X501Y606D01*
X428Y605D02*
X501Y605D01*
X428Y604D02*
X501Y604D01*
X428Y603D02*
X501Y603D01*
X428Y602D02*
X501Y602D01*
X428Y601D02*
X501Y601D01*
X428Y600D02*
X501Y600D01*
X428Y599D02*
X501Y599D01*
X428Y598D02*
X501Y598D01*
X428Y597D02*
X461Y597D01*
X467Y597D02*
X501Y597D01*
X428Y596D02*
X457Y596D01*
X471Y596D02*
X501Y596D01*
X428Y595D02*
X455Y595D01*
X474Y595D02*
X501Y595D01*
X428Y594D02*
X453Y594D01*
X475Y594D02*
X501Y594D01*
X428Y593D02*
X452Y593D01*
X477Y593D02*
X501Y593D01*
X428Y592D02*
X450Y592D01*
X478Y592D02*
X501Y592D01*
X428Y591D02*
X449Y591D01*
X479Y591D02*
X501Y591D01*
X428Y590D02*
X449Y590D01*
X480Y590D02*
X501Y590D01*
X428Y589D02*
X448Y589D01*
X481Y589D02*
X501Y589D01*
X428Y588D02*
X447Y588D01*
X481Y588D02*
X501Y588D01*
X428Y587D02*
X447Y587D01*
X482Y587D02*
X501Y587D01*
X428Y586D02*
X446Y586D01*
X482Y586D02*
X501Y586D01*
X428Y585D02*
X446Y585D01*
X483Y585D02*
X501Y585D01*
X428Y584D02*
X445Y584D01*
X483Y584D02*
X501Y584D01*
X428Y583D02*
X445Y583D01*
X484Y583D02*
X501Y583D01*
X428Y582D02*
X445Y582D01*
X484Y582D02*
X501Y582D01*
X428Y581D02*
X444Y581D01*
X484Y581D02*
X501Y581D01*
X428Y580D02*
X444Y580D01*
X484Y580D02*
X501Y580D01*
X428Y579D02*
X444Y579D01*
X484Y579D02*
X501Y579D01*
X428Y578D02*
X444Y578D01*
X484Y578D02*
X501Y578D01*
X428Y577D02*
X444Y577D01*
X484Y577D02*
X501Y577D01*
X428Y576D02*
X444Y576D01*
X484Y576D02*
X501Y576D01*
X428Y575D02*
X444Y575D01*
X484Y575D02*
X501Y575D01*
X428Y574D02*
X444Y574D01*
X484Y574D02*
X501Y574D01*
X428Y573D02*
X445Y573D01*
X484Y573D02*
X501Y573D01*
X428Y572D02*
X445Y572D01*
X483Y572D02*
X501Y572D01*
X428Y571D02*
X445Y571D01*
X483Y571D02*
X501Y571D01*
X428Y570D02*
X446Y570D01*
X483Y570D02*
X501Y570D01*
X428Y569D02*
X446Y569D01*
X482Y569D02*
X501Y569D01*
X428Y568D02*
X447Y568D01*
X482Y568D02*
X501Y568D01*
X428Y567D02*
X447Y567D01*
X481Y567D02*
X501Y567D01*
X428Y566D02*
X448Y566D01*
X481Y566D02*
X501Y566D01*
X428Y565D02*
X449Y565D01*
X480Y565D02*
X501Y565D01*
X428Y564D02*
X450Y564D01*
X479Y564D02*
X501Y564D01*
X428Y563D02*
X451Y563D01*
X478Y563D02*
X501Y563D01*
X428Y562D02*
X452Y562D01*
X477Y562D02*
X501Y562D01*
X428Y561D02*
X453Y561D01*
X475Y561D02*
X501Y561D01*
X428Y560D02*
X455Y560D01*
X473Y560D02*
X501Y560D01*
X428Y559D02*
X457Y559D01*
X471Y559D02*
X501Y559D01*
X428Y558D02*
X463Y558D01*
X466Y558D02*
X501Y558D01*
X428Y557D02*
X501Y557D01*
X428Y556D02*
X501Y556D01*
X428Y555D02*
X501Y555D01*
X428Y554D02*
X501Y554D01*
X428Y553D02*
X501Y553D01*
X428Y552D02*
X501Y552D01*
X428Y551D02*
X501Y551D01*
X428Y550D02*
X501Y550D01*
X428Y549D02*
X501Y549D01*
X428Y548D02*
X501Y548D01*
X428Y547D02*
X501Y547D01*
X428Y546D02*
X501Y546D01*
X428Y545D02*
X501Y545D01*
X428Y544D02*
X501Y544D01*
X428Y543D02*
X501Y543D01*
X428Y542D02*
X501Y542D01*
X428Y541D02*
X501Y541D01*
D02*
G04 End of Copper0*
M02*