G04 MADE WITH FRITZING*
G04 WWW.FRITZING.ORG*
G04 DOUBLE SIDED*
G04 HOLES PLATED*
G04 CONTOUR ON CENTER OF CONTOUR VECTOR*
%ASAXBY*%
%FSLAX23Y23*%
%MOIN*%
%OFA0B0*%
%SFA1.0B1.0*%
%ADD10C,0.062992*%
%ADD11C,0.075000*%
%ADD12C,0.066194*%
%ADD13C,0.066222*%
%ADD14C,0.170000*%
%ADD15C,0.064000*%
%ADD16C,0.074000*%
%ADD17C,0.078000*%
%ADD18C,0.090551*%
%ADD19C,0.075433*%
%ADD20R,0.062992X0.062992*%
%ADD21R,0.062992X0.031496*%
%ADD22C,0.048000*%
%ADD23C,0.024000*%
%ADD24C,0.008000*%
%ADD25R,0.001000X0.001000*%
%LNCOPPER1*%
G90*
G70*
G54D10*
X2565Y626D03*
X2565Y725D03*
X2565Y326D03*
X2565Y425D03*
G54D11*
X1665Y1126D03*
X1665Y726D03*
X1565Y1126D03*
X1565Y726D03*
G54D12*
X2125Y126D03*
X2225Y126D03*
X2325Y126D03*
X2425Y126D03*
X2525Y126D03*
G54D13*
X1665Y2026D03*
X1565Y2026D03*
X1465Y2026D03*
X1365Y2026D03*
X1265Y2026D03*
X1165Y2026D03*
X1065Y2026D03*
X965Y2026D03*
X865Y2026D03*
X765Y2026D03*
X2525Y2026D03*
X2425Y2026D03*
X2325Y2026D03*
X2225Y2026D03*
X2125Y2026D03*
X2025Y2026D03*
X1925Y2026D03*
X1825Y2026D03*
G54D12*
X1225Y126D03*
X1125Y126D03*
X1325Y126D03*
X1425Y126D03*
X1525Y126D03*
X1625Y126D03*
X1725Y126D03*
X1825Y126D03*
X2025Y126D03*
G54D14*
X265Y1962D03*
X265Y1726D03*
X450Y1844D03*
X265Y1962D03*
X265Y1726D03*
X450Y1844D03*
G54D15*
X1865Y1426D03*
X1765Y1426D03*
X1665Y1426D03*
X1565Y1426D03*
X1465Y1426D03*
X1465Y1826D03*
X1565Y1826D03*
X1665Y1826D03*
X1765Y1826D03*
X1865Y1826D03*
X1965Y1826D03*
X1965Y1426D03*
G54D16*
X1265Y1426D03*
X1265Y1170D03*
X1087Y1426D03*
X1087Y1170D03*
X1265Y1426D03*
X1265Y1170D03*
X1087Y1426D03*
X1087Y1170D03*
X965Y1426D03*
X965Y1170D03*
X787Y1426D03*
X787Y1170D03*
X965Y1426D03*
X965Y1170D03*
X787Y1426D03*
X787Y1170D03*
X1265Y1026D03*
X1265Y770D03*
X1087Y1026D03*
X1087Y770D03*
X1265Y1026D03*
X1265Y770D03*
X1087Y1026D03*
X1087Y770D03*
X965Y1026D03*
X965Y770D03*
X787Y1026D03*
X787Y770D03*
X965Y1026D03*
X965Y770D03*
X787Y1026D03*
X787Y770D03*
X565Y926D03*
X465Y976D03*
X565Y1026D03*
X565Y1126D03*
X565Y1226D03*
X465Y1076D03*
X465Y1176D03*
X465Y1276D03*
X565Y926D03*
X465Y976D03*
X565Y1026D03*
X565Y1126D03*
X565Y1226D03*
X465Y1076D03*
X465Y1176D03*
X465Y1276D03*
G54D11*
X965Y326D03*
X1365Y326D03*
X965Y426D03*
X1365Y426D03*
X965Y526D03*
X1365Y526D03*
X965Y626D03*
X1365Y626D03*
G54D17*
X2365Y1626D03*
X2365Y1526D03*
X2365Y1426D03*
X2265Y1626D03*
X2265Y1526D03*
X2265Y1426D03*
X2165Y1626D03*
X2165Y1526D03*
X2165Y1426D03*
G54D16*
X565Y226D03*
X465Y276D03*
X565Y326D03*
X565Y426D03*
X565Y526D03*
X465Y376D03*
X465Y476D03*
X465Y576D03*
X565Y226D03*
X465Y276D03*
X565Y326D03*
X565Y426D03*
X565Y526D03*
X465Y376D03*
X465Y476D03*
X465Y576D03*
G54D17*
X2665Y226D03*
X2665Y126D03*
G54D18*
X2482Y1276D03*
X2582Y1176D03*
X2482Y1076D03*
X2682Y1076D03*
X2682Y1276D03*
G54D19*
X1655Y1338D03*
X905Y918D03*
X1325Y1848D03*
X1325Y1528D03*
X2375Y228D03*
X2155Y1298D03*
X1845Y248D03*
X1025Y1668D03*
X1215Y1918D03*
X1955Y1148D03*
X1025Y918D03*
X905Y1278D03*
X1895Y1038D03*
X1645Y588D03*
X2465Y798D03*
X2265Y958D03*
X1915Y1258D03*
G54D20*
X2565Y626D03*
X2565Y326D03*
G54D21*
X1794Y1226D03*
X1794Y1176D03*
X1794Y1126D03*
X1794Y1076D03*
X1794Y1026D03*
X1794Y976D03*
X1794Y926D03*
X1794Y877D03*
X1794Y827D03*
X1794Y777D03*
X1794Y727D03*
X1794Y677D03*
X1794Y627D03*
X1794Y577D03*
X1794Y527D03*
X1794Y477D03*
X1794Y427D03*
X2365Y1226D03*
X2365Y1176D03*
X2365Y1126D03*
X2365Y1076D03*
X2365Y1026D03*
X2365Y976D03*
X2365Y926D03*
X2365Y877D03*
X2365Y827D03*
X2365Y777D03*
X2365Y727D03*
X2365Y677D03*
X2365Y627D03*
X2365Y577D03*
X2365Y527D03*
X2365Y477D03*
X2365Y427D03*
G54D22*
X390Y1985D02*
X345Y1977D01*
D02*
X582Y1610D02*
X584Y1985D01*
D02*
X527Y445D02*
X502Y457D01*
D02*
X584Y1985D02*
X390Y1985D01*
D02*
X527Y1245D02*
X502Y1258D01*
D02*
X479Y1316D02*
X582Y1610D01*
D02*
X362Y532D02*
X428Y496D01*
D02*
X357Y1179D02*
X362Y532D01*
D02*
X357Y1179D02*
X423Y1177D01*
D02*
X359Y1460D02*
X357Y1179D01*
D02*
X292Y1650D02*
X359Y1460D01*
D02*
X527Y545D02*
X502Y558D01*
D02*
X527Y1145D02*
X502Y1158D01*
D02*
X637Y748D02*
X494Y606D01*
D02*
X640Y1193D02*
X637Y748D01*
D02*
X603Y1209D02*
X640Y1193D01*
D02*
X698Y661D02*
X594Y556D01*
D02*
X700Y1195D02*
X698Y661D01*
D02*
X670Y1607D02*
X700Y1195D01*
D02*
X665Y2046D02*
X670Y1607D01*
D02*
X348Y2046D02*
X665Y2046D01*
D02*
X322Y2020D02*
X348Y2046D01*
G54D23*
D02*
X2468Y1114D02*
X2465Y1123D01*
D02*
X2465Y1123D02*
X2391Y1125D01*
D02*
X2391Y1176D02*
X2541Y1176D01*
D02*
X1792Y417D02*
X1768Y299D01*
D02*
X1768Y299D02*
X1732Y156D01*
D02*
X2389Y1236D02*
X2444Y1260D01*
D02*
X2682Y1117D02*
X2682Y1236D01*
D02*
X2522Y1276D02*
X2641Y1276D01*
D02*
X2522Y1076D02*
X2641Y1076D01*
G54D24*
D02*
X2554Y608D02*
X2415Y388D01*
X2415Y388D02*
X2315Y388D01*
X2315Y388D02*
X1908Y1018D01*
D02*
X1970Y1130D02*
X2315Y738D01*
X2315Y738D02*
X2339Y732D01*
D02*
X2305Y2011D02*
X2255Y1973D01*
X2255Y1973D02*
X1705Y1968D01*
X1705Y1968D02*
X1583Y1844D01*
D02*
X1567Y1401D02*
X1585Y1178D01*
X1585Y1178D02*
X1705Y1178D01*
X1705Y1178D02*
X1710Y1168D01*
X1710Y1168D02*
X1745Y688D01*
X1745Y688D02*
X1768Y683D01*
D02*
X1933Y1242D02*
X2247Y973D01*
D02*
X2442Y793D02*
X2391Y782D01*
D02*
X1467Y1401D02*
X1515Y678D01*
X1515Y678D02*
X1745Y628D01*
X1745Y628D02*
X1745Y588D01*
X1745Y588D02*
X1768Y583D01*
D02*
X2544Y322D02*
X1795Y173D01*
X1795Y173D02*
X1775Y158D01*
X1775Y158D02*
X1775Y78D01*
X1775Y78D02*
X1695Y78D01*
X1695Y78D02*
X1675Y98D01*
X1675Y98D02*
X1675Y608D01*
X1675Y608D02*
X1664Y601D01*
D02*
X1658Y1361D02*
X1662Y1401D01*
D02*
X2148Y1444D02*
X1825Y1773D01*
X1825Y1773D02*
X1535Y1783D01*
X1535Y1783D02*
X1515Y1798D01*
X1515Y1798D02*
X1515Y1988D01*
X1515Y1988D02*
X1545Y2011D01*
D02*
X1090Y1001D02*
X1115Y828D01*
X1115Y828D02*
X1353Y446D01*
D02*
X2207Y109D02*
X2165Y68D01*
X2165Y68D02*
X1795Y68D01*
X1795Y68D02*
X1795Y58D01*
X1795Y58D02*
X1665Y58D01*
X1665Y58D02*
X1575Y88D01*
X1575Y88D02*
X1575Y158D01*
X1575Y158D02*
X1595Y178D01*
X1595Y178D02*
X1655Y178D01*
X1655Y178D02*
X1655Y408D01*
X1655Y408D02*
X1388Y425D01*
D02*
X1478Y2005D02*
X1490Y1988D01*
X1490Y1988D02*
X1495Y1878D01*
X1495Y1878D02*
X1435Y1878D01*
X1435Y1878D02*
X1415Y1858D01*
X1415Y1858D02*
X1415Y1788D01*
X1415Y1788D02*
X1505Y1768D01*
X1505Y1768D02*
X1515Y1748D01*
X1515Y1748D02*
X1805Y1748D01*
X1805Y1748D02*
X2125Y1368D01*
X2125Y1368D02*
X2295Y1368D01*
X2295Y1368D02*
X2346Y1410D01*
D02*
X1092Y1401D02*
X1095Y1388D01*
X1095Y1388D02*
X1220Y728D01*
X1220Y728D02*
X1346Y639D01*
D02*
X791Y1001D02*
X815Y868D01*
X815Y868D02*
X905Y748D01*
X905Y748D02*
X1348Y342D01*
D02*
X2307Y109D02*
X2245Y53D01*
X2245Y53D02*
X2245Y48D01*
X2245Y48D02*
X1815Y48D01*
X1815Y48D02*
X1815Y38D01*
X1815Y38D02*
X1575Y38D01*
X1575Y38D02*
X1475Y88D01*
X1475Y88D02*
X1475Y158D01*
X1475Y158D02*
X1377Y307D01*
D02*
X1802Y2035D02*
X1695Y2078D01*
X1695Y2078D02*
X1425Y2073D01*
X1425Y2073D02*
X1420Y2068D01*
X1420Y2068D02*
X1330Y1528D01*
X1330Y1528D02*
X1348Y1528D01*
D02*
X1309Y1831D02*
X975Y1478D01*
X975Y1478D02*
X935Y1478D01*
X935Y1478D02*
X745Y1228D01*
X745Y1228D02*
X815Y1223D01*
X815Y1223D02*
X830Y1208D01*
X830Y1208D02*
X899Y940D01*
D02*
X924Y1264D02*
X1025Y1188D01*
X1025Y1188D02*
X1025Y941D01*
D02*
X1259Y1401D02*
X1205Y1188D01*
X1205Y1188D02*
X1245Y1058D01*
X1245Y1058D02*
X1251Y1048D01*
D02*
X987Y1439D02*
X1055Y1478D01*
X1055Y1478D02*
X1135Y1478D01*
X1135Y1478D02*
X1241Y1436D01*
D02*
X1201Y1899D02*
X1039Y1686D01*
D02*
X2148Y1544D02*
X1915Y1798D01*
X1915Y1798D02*
X1905Y1878D01*
X1905Y1878D02*
X1735Y1878D01*
X1735Y1878D02*
X1685Y1841D01*
D02*
X1820Y467D02*
X1845Y458D01*
X1845Y458D02*
X1845Y271D01*
D02*
X2045Y2041D02*
X2095Y2078D01*
X2095Y2078D02*
X2365Y2078D01*
X2365Y2078D02*
X2425Y1658D01*
X2425Y1658D02*
X2415Y1388D01*
X2415Y1388D02*
X2177Y1305D01*
D02*
X2375Y204D02*
X2375Y98D01*
X2375Y98D02*
X2265Y28D01*
X2265Y28D02*
X1835Y18D01*
X1835Y18D02*
X1515Y18D01*
X1515Y18D02*
X1275Y78D01*
X1275Y78D02*
X1270Y158D01*
X1270Y158D02*
X1255Y173D01*
X1255Y173D02*
X590Y224D01*
D02*
X965Y449D02*
X965Y503D01*
D02*
X965Y349D02*
X965Y403D01*
D02*
X965Y603D02*
X965Y549D01*
D02*
X2560Y745D02*
X2490Y1042D01*
D02*
X2581Y439D02*
X2615Y468D01*
X2615Y468D02*
X2615Y678D01*
X2615Y678D02*
X2580Y710D01*
G54D25*
X428Y1314D02*
X501Y1314D01*
X428Y1313D02*
X501Y1313D01*
X428Y1312D02*
X501Y1312D01*
X428Y1311D02*
X501Y1311D01*
X428Y1310D02*
X501Y1310D01*
X428Y1309D02*
X501Y1309D01*
X428Y1308D02*
X501Y1308D01*
X428Y1307D02*
X501Y1307D01*
X428Y1306D02*
X501Y1306D01*
X428Y1305D02*
X501Y1305D01*
X428Y1304D02*
X501Y1304D01*
X428Y1303D02*
X501Y1303D01*
X428Y1302D02*
X501Y1302D01*
X428Y1301D02*
X501Y1301D01*
X428Y1300D02*
X501Y1300D01*
X428Y1299D02*
X501Y1299D01*
X428Y1298D02*
X501Y1298D01*
X428Y1297D02*
X463Y1297D01*
X465Y1297D02*
X501Y1297D01*
X428Y1296D02*
X458Y1296D01*
X471Y1296D02*
X501Y1296D01*
X428Y1295D02*
X455Y1295D01*
X473Y1295D02*
X501Y1295D01*
X428Y1294D02*
X453Y1294D01*
X475Y1294D02*
X501Y1294D01*
X428Y1293D02*
X452Y1293D01*
X477Y1293D02*
X501Y1293D01*
X428Y1292D02*
X451Y1292D01*
X478Y1292D02*
X501Y1292D01*
X428Y1291D02*
X450Y1291D01*
X479Y1291D02*
X501Y1291D01*
X428Y1290D02*
X449Y1290D01*
X480Y1290D02*
X501Y1290D01*
X428Y1289D02*
X448Y1289D01*
X481Y1289D02*
X501Y1289D01*
X428Y1288D02*
X447Y1288D01*
X481Y1288D02*
X501Y1288D01*
X428Y1287D02*
X447Y1287D01*
X482Y1287D02*
X501Y1287D01*
X428Y1286D02*
X446Y1286D01*
X482Y1286D02*
X501Y1286D01*
X428Y1285D02*
X446Y1285D01*
X483Y1285D02*
X501Y1285D01*
X428Y1284D02*
X445Y1284D01*
X483Y1284D02*
X501Y1284D01*
X428Y1283D02*
X445Y1283D01*
X483Y1283D02*
X501Y1283D01*
X428Y1282D02*
X445Y1282D01*
X484Y1282D02*
X501Y1282D01*
X428Y1281D02*
X444Y1281D01*
X484Y1281D02*
X501Y1281D01*
X428Y1280D02*
X444Y1280D01*
X484Y1280D02*
X501Y1280D01*
X428Y1279D02*
X444Y1279D01*
X484Y1279D02*
X501Y1279D01*
X428Y1278D02*
X444Y1278D01*
X484Y1278D02*
X501Y1278D01*
X428Y1277D02*
X444Y1277D01*
X484Y1277D02*
X501Y1277D01*
X428Y1276D02*
X444Y1276D01*
X484Y1276D02*
X501Y1276D01*
X428Y1275D02*
X444Y1275D01*
X484Y1275D02*
X501Y1275D01*
X428Y1274D02*
X444Y1274D01*
X484Y1274D02*
X501Y1274D01*
X428Y1273D02*
X445Y1273D01*
X484Y1273D02*
X501Y1273D01*
X428Y1272D02*
X445Y1272D01*
X484Y1272D02*
X501Y1272D01*
X428Y1271D02*
X445Y1271D01*
X483Y1271D02*
X501Y1271D01*
X428Y1270D02*
X445Y1270D01*
X483Y1270D02*
X501Y1270D01*
X428Y1269D02*
X446Y1269D01*
X482Y1269D02*
X501Y1269D01*
X428Y1268D02*
X446Y1268D01*
X482Y1268D02*
X501Y1268D01*
X428Y1267D02*
X447Y1267D01*
X481Y1267D02*
X501Y1267D01*
X428Y1266D02*
X448Y1266D01*
X481Y1266D02*
X501Y1266D01*
X428Y1265D02*
X449Y1265D01*
X480Y1265D02*
X501Y1265D01*
X428Y1264D02*
X449Y1264D01*
X479Y1264D02*
X501Y1264D01*
X428Y1263D02*
X450Y1263D01*
X478Y1263D02*
X501Y1263D01*
X428Y1262D02*
X452Y1262D01*
X477Y1262D02*
X501Y1262D01*
X428Y1261D02*
X453Y1261D01*
X476Y1261D02*
X501Y1261D01*
X428Y1260D02*
X455Y1260D01*
X474Y1260D02*
X501Y1260D01*
X428Y1259D02*
X457Y1259D01*
X472Y1259D02*
X501Y1259D01*
X428Y1258D02*
X461Y1258D01*
X468Y1258D02*
X501Y1258D01*
X428Y1257D02*
X501Y1257D01*
X428Y1256D02*
X501Y1256D01*
X428Y1255D02*
X501Y1255D01*
X428Y1254D02*
X501Y1254D01*
X428Y1253D02*
X501Y1253D01*
X428Y1252D02*
X501Y1252D01*
X428Y1251D02*
X501Y1251D01*
X428Y1250D02*
X501Y1250D01*
X428Y1249D02*
X501Y1249D01*
X428Y1248D02*
X501Y1248D01*
X428Y1247D02*
X501Y1247D01*
X428Y1246D02*
X501Y1246D01*
X428Y1245D02*
X501Y1245D01*
X428Y1244D02*
X501Y1244D01*
X428Y1243D02*
X501Y1243D01*
X428Y1242D02*
X501Y1242D01*
X428Y1241D02*
X501Y1241D01*
X428Y614D02*
X501Y614D01*
X428Y613D02*
X501Y613D01*
X428Y612D02*
X501Y612D01*
X428Y611D02*
X501Y611D01*
X428Y610D02*
X501Y610D01*
X428Y609D02*
X501Y609D01*
X428Y608D02*
X501Y608D01*
X428Y607D02*
X501Y607D01*
X428Y606D02*
X501Y606D01*
X428Y605D02*
X501Y605D01*
X428Y604D02*
X501Y604D01*
X428Y603D02*
X501Y603D01*
X428Y602D02*
X501Y602D01*
X428Y601D02*
X501Y601D01*
X428Y600D02*
X501Y600D01*
X428Y599D02*
X501Y599D01*
X428Y598D02*
X501Y598D01*
X428Y597D02*
X461Y597D01*
X467Y597D02*
X501Y597D01*
X428Y596D02*
X457Y596D01*
X471Y596D02*
X501Y596D01*
X428Y595D02*
X455Y595D01*
X474Y595D02*
X501Y595D01*
X428Y594D02*
X453Y594D01*
X475Y594D02*
X501Y594D01*
X428Y593D02*
X452Y593D01*
X477Y593D02*
X501Y593D01*
X428Y592D02*
X450Y592D01*
X478Y592D02*
X501Y592D01*
X428Y591D02*
X449Y591D01*
X479Y591D02*
X501Y591D01*
X428Y590D02*
X449Y590D01*
X480Y590D02*
X501Y590D01*
X428Y589D02*
X448Y589D01*
X481Y589D02*
X501Y589D01*
X428Y588D02*
X447Y588D01*
X481Y588D02*
X501Y588D01*
X428Y587D02*
X447Y587D01*
X482Y587D02*
X501Y587D01*
X428Y586D02*
X446Y586D01*
X482Y586D02*
X501Y586D01*
X428Y585D02*
X446Y585D01*
X483Y585D02*
X501Y585D01*
X428Y584D02*
X445Y584D01*
X483Y584D02*
X501Y584D01*
X428Y583D02*
X445Y583D01*
X484Y583D02*
X501Y583D01*
X428Y582D02*
X445Y582D01*
X484Y582D02*
X501Y582D01*
X428Y581D02*
X444Y581D01*
X484Y581D02*
X501Y581D01*
X428Y580D02*
X444Y580D01*
X484Y580D02*
X501Y580D01*
X428Y579D02*
X444Y579D01*
X484Y579D02*
X501Y579D01*
X428Y578D02*
X444Y578D01*
X484Y578D02*
X501Y578D01*
X428Y577D02*
X444Y577D01*
X484Y577D02*
X501Y577D01*
X428Y576D02*
X444Y576D01*
X484Y576D02*
X501Y576D01*
X428Y575D02*
X444Y575D01*
X484Y575D02*
X501Y575D01*
X428Y574D02*
X444Y574D01*
X484Y574D02*
X501Y574D01*
X428Y573D02*
X445Y573D01*
X484Y573D02*
X501Y573D01*
X428Y572D02*
X445Y572D01*
X483Y572D02*
X501Y572D01*
X428Y571D02*
X445Y571D01*
X483Y571D02*
X501Y571D01*
X428Y570D02*
X446Y570D01*
X483Y570D02*
X501Y570D01*
X428Y569D02*
X446Y569D01*
X482Y569D02*
X501Y569D01*
X428Y568D02*
X447Y568D01*
X482Y568D02*
X501Y568D01*
X428Y567D02*
X447Y567D01*
X481Y567D02*
X501Y567D01*
X428Y566D02*
X448Y566D01*
X481Y566D02*
X501Y566D01*
X428Y565D02*
X449Y565D01*
X480Y565D02*
X501Y565D01*
X428Y564D02*
X450Y564D01*
X479Y564D02*
X501Y564D01*
X428Y563D02*
X451Y563D01*
X478Y563D02*
X501Y563D01*
X428Y562D02*
X452Y562D01*
X477Y562D02*
X501Y562D01*
X428Y561D02*
X453Y561D01*
X475Y561D02*
X501Y561D01*
X428Y560D02*
X455Y560D01*
X473Y560D02*
X501Y560D01*
X428Y559D02*
X457Y559D01*
X471Y559D02*
X501Y559D01*
X428Y558D02*
X463Y558D01*
X466Y558D02*
X501Y558D01*
X428Y557D02*
X501Y557D01*
X428Y556D02*
X501Y556D01*
X428Y555D02*
X501Y555D01*
X428Y554D02*
X501Y554D01*
X428Y553D02*
X501Y553D01*
X428Y552D02*
X501Y552D01*
X428Y551D02*
X501Y551D01*
X428Y550D02*
X501Y550D01*
X428Y549D02*
X501Y549D01*
X428Y548D02*
X501Y548D01*
X428Y547D02*
X501Y547D01*
X428Y546D02*
X501Y546D01*
X428Y545D02*
X501Y545D01*
X428Y544D02*
X501Y544D01*
X428Y543D02*
X501Y543D01*
X428Y542D02*
X501Y542D01*
X428Y541D02*
X501Y541D01*
D02*
G04 End of Copper1*
M02*