G04 MADE WITH FRITZING*
G04 WWW.FRITZING.ORG*
G04 DOUBLE SIDED*
G04 HOLES PLATED*
G04 CONTOUR ON CENTER OF CONTOUR VECTOR*
%ASAXBY*%
%FSLAX23Y23*%
%MOIN*%
%OFA0B0*%
%SFA1.0B1.0*%
%ADD10C,0.072992*%
%ADD11C,0.085000*%
%ADD12C,0.074000*%
%ADD13C,0.088000*%
%ADD14C,0.106384*%
%ADD15C,0.106385*%
%ADD16C,0.076194*%
%ADD17C,0.076222*%
%ADD18C,0.085433*%
%ADD19R,0.072992X0.072992*%
%LNMASK0*%
G90*
G70*
G54D10*
X2565Y626D03*
X2565Y725D03*
X2565Y326D03*
X2565Y425D03*
G54D11*
X1665Y1126D03*
X1665Y726D03*
X1565Y1126D03*
X1565Y726D03*
G54D12*
X1865Y1426D03*
X1765Y1426D03*
X1665Y1426D03*
X1565Y1426D03*
X1465Y1426D03*
X1465Y1826D03*
X1565Y1826D03*
X1665Y1826D03*
X1765Y1826D03*
X1865Y1826D03*
X1965Y1826D03*
X1965Y1426D03*
G54D13*
X465Y526D03*
X365Y526D03*
X265Y526D03*
X465Y1126D03*
X365Y1126D03*
X265Y1126D03*
X465Y1726D03*
X365Y1726D03*
X265Y1726D03*
G54D14*
X2482Y1276D03*
G54D15*
X2582Y1176D03*
G54D14*
X2482Y1076D03*
G54D15*
X2682Y1076D03*
X2682Y1276D03*
G54D16*
X2125Y126D03*
X2225Y126D03*
X2325Y126D03*
X2425Y126D03*
X2525Y126D03*
G54D17*
X1665Y2026D03*
X1565Y2026D03*
X1465Y2026D03*
X1365Y2026D03*
X1265Y2026D03*
X1165Y2026D03*
X1065Y2026D03*
X965Y2026D03*
X865Y2026D03*
X765Y2026D03*
X2525Y2026D03*
X2425Y2026D03*
X2325Y2026D03*
X2225Y2026D03*
X2125Y2026D03*
X2025Y2026D03*
X1925Y2026D03*
X1825Y2026D03*
G54D16*
X1225Y126D03*
X1125Y126D03*
X1325Y126D03*
X1425Y126D03*
X1525Y126D03*
X1625Y126D03*
X1725Y126D03*
X1825Y126D03*
X2025Y126D03*
G54D13*
X465Y326D03*
X365Y326D03*
X265Y326D03*
X465Y926D03*
X365Y926D03*
X265Y926D03*
X465Y1526D03*
X365Y1526D03*
X265Y1526D03*
G54D18*
X1895Y578D03*
X1655Y618D03*
X555Y1218D03*
X1435Y1728D03*
X2025Y578D03*
G54D19*
X2565Y626D03*
X2565Y326D03*
G04 End of Mask0*
M02*